<svg width="309" height="59" viewBox="0 0 309 59" fill="none" xmlns="http://www.w3.org/2000/svg">
<g clip-path="url(#clip0_311_11723)">
<path d="M269.96 32.28C270.06 33.39 270.62 34.24 271.78 34.24C272.94 34.24 273.48 33.62 273.48 32.44C273.48 31.33 273.01 30.75 271.52 30.07C269.76 29.28 269.01 28.53 269.01 26.98C269.01 25.43 270.01 24.29 271.8 24.29C273.93 24.29 274.54 25.77 274.58 27.07H273.33C273.26 26.48 273.06 25.33 271.76 25.33C270.73 25.33 270.28 26.01 270.28 26.86C270.28 27.86 270.74 28.32 272.11 28.94C274.07 29.82 274.77 30.73 274.77 32.33C274.77 34.03 273.78 35.29 271.73 35.29C269.55 35.29 268.77 33.89 268.68 32.29H269.95L269.96 32.28Z" fill="#375171"/>
<path d="M278.69 31.82L277.91 35.14H276.65C276.73 34.91 279.24 24.69 279.33 24.43H280.97L283.73 35.14H282.39L281.59 31.82H278.71H278.69ZM281.31 30.7C280.68 28.11 280.27 26.46 280.11 25.59H280.07C279.91 26.56 279.47 28.43 278.93 30.7H281.31Z" fill="#375171"/>
<path d="M285.85 24.43H287.11V34.04H291.07L290.9 35.14H285.85V24.43Z" fill="#375171"/>
<path d="M294.11 24.43V31.85C294.11 33.06 294.47 34.22 295.92 34.22C297.37 34.22 297.72 33.23 297.72 31.85V24.43H298.99V31.88C298.99 33.86 298.25 35.31 295.88 35.31C293.51 35.31 292.83 33.97 292.83 31.94V24.43H294.11Z" fill="#375171"/>
<path d="M301.96 24.43H304.5C307.03 24.43 308.24 26.16 308.24 29.51C308.24 33.13 307.14 35.14 304.33 35.14H301.96V24.43ZM303.23 34.07H304.29C306.26 34.07 306.93 32.54 306.93 29.55C306.93 26.77 306.15 25.51 304.3 25.51H303.23V34.07Z" fill="#375171"/>
<path d="M143.89 12.57C139.77 12.57 134.97 13.92 131.3 18.33H131.19C129.16 14.49 124.3 12.57 119.68 12.57C119.59 12.57 119.5 12.57 119.4 12.57C119.34 12.57 119.28 12.57 119.22 12.57C116.54 12.57 113.59 13.17 110.84 14.78C112.13 16.46 112.98 18.44 113.39 20.64C114.44 20.31 115.59 20.13 116.8 20.13C122.16 20.13 124.31 24.36 124.31 28.6V44.97H132.55V27.6C133.03 22.41 136.88 20.14 141.47 20.14C146.83 20.14 148.98 24.37 148.98 28.61V44.98H157.22V25.11C157.22 16.76 150.5 12.58 143.9 12.58L143.89 12.57Z" fill="#33B578"/>
<path d="M0 37.45L7.54 35.12C9.26 38.55 12.75 39.77 15.85 39.77C18.23 39.77 21.56 39.05 21.56 36.83C21.56 34.61 18.35 33.89 15.74 33.23L11.86 32.29C7.59 31.24 1.72 28.74 1.72 23.09C1.72 17.16 7.87 13.39 15.24 13.39C22.61 13.39 27.54 16.77 29.09 21.2L21.61 23.53C20.67 21.54 18.51 19.71 14.91 19.71C11.97 19.71 9.87 20.87 9.87 22.59C9.87 24.81 13.86 25.8 16.85 26.47L19.9 27.13C23.45 27.91 30.21 29.46 30.21 36.1C30.21 42.19 24.56 46.13 15.91 46.13C7.82 46.13 1.78 42.64 0.01 37.43L0 37.45Z" fill="#33B578"/>
<path d="M39.3601 0C42.3001 0 44.5701 2.16 44.5701 4.71C44.5701 7.48 42.3001 9.64 39.3601 9.64C36.4201 9.64 34.1001 7.48 34.1001 4.71C34.1001 2.16 36.3701 0 39.3601 0ZM35.2601 14.29H43.3501V45.21H35.2601V14.29Z" fill="#33B578"/>
<path d="M163.61 14.29H171.59V18.89H171.7C175.08 14.9 179.46 13.41 184.22 13.41C194.19 13.41 200.56 20.72 200.56 29.64C200.56 40 192.58 46.15 183.66 46.15C177.95 46.15 173.96 43.82 171.69 41.27V58.67H163.6V14.29H163.61ZM181.89 38.72C187.87 38.72 192.14 34.95 192.14 29.8C192.14 24.65 187.76 20.82 181.89 20.82C176.02 20.82 171.53 24.53 171.53 29.8C171.53 35.07 176.07 38.72 181.89 38.72Z" fill="#33B578"/>
<path d="M205.71 0.890015H213.8V45.21H205.71V0.890015Z" fill="#33B578"/>
<path d="M218.88 29.92C218.88 20.39 226.58 13.41 237.27 13.41C245.91 13.41 254.89 18.51 254.89 29.86V31.97H227.02C227.68 36.62 232.23 39.17 237.77 39.17C242.2 39.17 245.8 37.45 247.58 34.24L255.12 37.18C252.57 42.22 246.25 46.16 237.83 46.16C227.03 46.16 218.88 39.73 218.88 29.93V29.92ZM246.69 26.65C246.14 21.89 241.7 20.06 237.22 20.06C231.85 20.06 228.41 22.77 227.41 26.65H246.69Z" fill="#33B578"/>
<path d="M95.0099 12.57C95.0099 12.57 94.9899 12.57 94.9799 12.57C94.9299 12.57 94.8799 12.57 94.8199 12.57C94.6599 12.57 94.4899 12.58 94.3299 12.59C92.5699 12.63 90.6999 12.93 88.8499 13.61C86.8899 14.33 84.9699 15.48 83.2299 17.22C82.8799 17.57 82.5399 17.93 82.2099 18.33H82.0999C80.8699 16.01 78.6099 14.39 75.9899 13.48C74.2799 12.88 72.4199 12.58 70.5899 12.58C66.0199 12.58 61.3299 14.44 58.6799 18.11H58.5699V13.48H50.4399V44.97H58.6799V28.72C58.6799 22.74 62.6899 20.14 67.6499 20.14C72.6099 20.14 74.7699 23.65 75.0999 27.49V44.97H83.3899V28.72C83.3899 24.26 85.6499 21.68 88.8399 20.66C89.6499 20.4 90.5199 20.24 91.4299 20.18C91.6499 20.16 91.8699 20.16 92.0899 20.16C92.1699 20.16 92.2499 20.16 92.3399 20.16C92.3399 20.16 92.3499 20.16 92.3599 20.16C92.3799 20.16 92.3999 20.16 92.4199 20.16C92.6199 20.16 92.8099 20.18 92.9999 20.19C93.1099 20.19 93.2299 20.19 93.3399 20.21C93.4299 20.21 93.5099 20.24 93.5899 20.25C98.0199 20.86 99.8299 24.68 99.8299 28.56V44.98H108.12V27.61C108.13 27.49 108.15 27.38 108.17 27.26V25.11C108.17 16.83 101.56 12.65 95.0099 12.59V12.57Z" fill="#33B578"/>
</g>
<defs>
<clipPath id="clip0_311_11723">
<rect width="308.24" height="58.68" fill="white"/>
</clipPath>
</defs>
</svg>
